<mxfile host="app.diagrams.net" modified="2023-04-03T16:31:07.028Z" agent="Mozilla/5.0 (Windows NT 10.0; Win64; x64) AppleWebKit/537.36 (KHTML, like Gecko) Chrome/110.0.0.0 Safari/537.36 OPR/96.0.0.0" etag="lbckLEJQSTvjbLmcX6C1" version="21.1.4" type="device">
  <diagram id="C5RBs43oDa-KdzZeNtuy" name="Page-1">
    <mxGraphModel dx="4093" dy="2701" grid="1" gridSize="10" guides="1" tooltips="1" connect="1" arrows="1" fold="1" page="1" pageScale="1" pageWidth="827" pageHeight="1169" math="0" shadow="0">
      <root>
        <mxCell id="WIyWlLk6GJQsqaUBKTNV-0" />
        <mxCell id="WIyWlLk6GJQsqaUBKTNV-1" parent="WIyWlLk6GJQsqaUBKTNV-0" />
        <mxCell id="LSPWSXQBOcd98Ju-pocV-0" value="GameService" style="swimlane;fontStyle=0;childLayout=stackLayout;horizontal=1;startSize=30;horizontalStack=0;resizeParent=1;resizeParentMax=0;resizeLast=0;collapsible=1;marginBottom=0;whiteSpace=wrap;html=1;" vertex="1" parent="WIyWlLk6GJQsqaUBKTNV-1">
          <mxGeometry x="-336" y="20" width="170" height="310" as="geometry" />
        </mxCell>
        <mxCell id="LSPWSXQBOcd98Ju-pocV-1" value="- _connectionString: const string" style="text;html=1;strokeColor=none;fillColor=none;align=left;verticalAlign=middle;whiteSpace=wrap;rounded=0;" vertex="1" parent="LSPWSXQBOcd98Ju-pocV-0">
          <mxGeometry y="30" width="170" height="40" as="geometry" />
        </mxCell>
        <mxCell id="LSPWSXQBOcd98Ju-pocV-2" value="- _gamesService: readonly IGameRepository" style="text;html=1;strokeColor=none;fillColor=none;align=left;verticalAlign=middle;whiteSpace=wrap;rounded=0;" vertex="1" parent="LSPWSXQBOcd98Ju-pocV-0">
          <mxGeometry y="70" width="170" height="40" as="geometry" />
        </mxCell>
        <mxCell id="LSPWSXQBOcd98Ju-pocV-3" value="+ GameService()" style="text;html=1;strokeColor=none;fillColor=none;align=left;verticalAlign=middle;whiteSpace=wrap;rounded=0;" vertex="1" parent="LSPWSXQBOcd98Ju-pocV-0">
          <mxGeometry y="110" width="170" height="30" as="geometry" />
        </mxCell>
        <mxCell id="LSPWSXQBOcd98Ju-pocV-4" value="" style="endArrow=none;html=1;rounded=0;entryX=0.996;entryY=-0.003;entryDx=0;entryDy=0;entryPerimeter=0;exitX=0.001;exitY=-0.004;exitDx=0;exitDy=0;exitPerimeter=0;" edge="1" parent="LSPWSXQBOcd98Ju-pocV-0" source="LSPWSXQBOcd98Ju-pocV-5" target="LSPWSXQBOcd98Ju-pocV-5">
          <mxGeometry width="50" height="50" relative="1" as="geometry">
            <mxPoint x="-4" y="190" as="sourcePoint" />
            <mxPoint x="46" y="140" as="targetPoint" />
          </mxGeometry>
        </mxCell>
        <mxCell id="LSPWSXQBOcd98Ju-pocV-5" value="+ GetAll(string console): List&amp;lt;Game&amp;gt;" style="text;strokeColor=none;fillColor=none;align=left;verticalAlign=middle;spacingLeft=4;spacingRight=4;overflow=hidden;points=[[0,0.5],[1,0.5]];portConstraint=eastwest;rotatable=0;whiteSpace=wrap;html=1;" vertex="1" parent="LSPWSXQBOcd98Ju-pocV-0">
          <mxGeometry y="140" width="170" height="50" as="geometry" />
        </mxCell>
        <mxCell id="LSPWSXQBOcd98Ju-pocV-6" value="+ GetGame(string name, string console): Game" style="text;html=1;strokeColor=none;fillColor=none;align=left;verticalAlign=middle;whiteSpace=wrap;rounded=0;" vertex="1" parent="LSPWSXQBOcd98Ju-pocV-0">
          <mxGeometry y="190" width="170" height="50" as="geometry" />
        </mxCell>
        <mxCell id="LSPWSXQBOcd98Ju-pocV-7" value="+ AddGame(Game g): void" style="text;html=1;strokeColor=none;fillColor=none;align=left;verticalAlign=middle;whiteSpace=wrap;rounded=0;" vertex="1" parent="LSPWSXQBOcd98Ju-pocV-0">
          <mxGeometry y="240" width="170" height="40" as="geometry" />
        </mxCell>
        <mxCell id="LSPWSXQBOcd98Ju-pocV-8" value="+ RemoveGame(Game g): void" style="text;html=1;strokeColor=none;fillColor=none;align=left;verticalAlign=middle;whiteSpace=wrap;rounded=0;" vertex="1" parent="LSPWSXQBOcd98Ju-pocV-0">
          <mxGeometry y="280" width="170" height="30" as="geometry" />
        </mxCell>
        <mxCell id="LSPWSXQBOcd98Ju-pocV-9" value="" style="endArrow=none;dashed=1;html=1;dashPattern=1 3;strokeWidth=2;rounded=0;" edge="1" parent="WIyWlLk6GJQsqaUBKTNV-1">
          <mxGeometry width="50" height="50" relative="1" as="geometry">
            <mxPoint x="-510" y="110" as="sourcePoint" />
            <mxPoint x="-340" y="110" as="targetPoint" />
          </mxGeometry>
        </mxCell>
        <mxCell id="LSPWSXQBOcd98Ju-pocV-10" value="&amp;lt;&amp;lt;interface&amp;gt;&amp;gt;&lt;br&gt;IGameService" style="swimlane;fontStyle=0;childLayout=stackLayout;horizontal=1;startSize=30;horizontalStack=0;resizeParent=1;resizeParentMax=0;resizeLast=0;collapsible=1;marginBottom=0;whiteSpace=wrap;html=1;" vertex="1" parent="WIyWlLk6GJQsqaUBKTNV-1">
          <mxGeometry x="-680" y="80" width="170" height="50" as="geometry" />
        </mxCell>
        <mxCell id="LSPWSXQBOcd98Ju-pocV-11" value="" style="endArrow=classic;html=1;rounded=0;entryX=1.005;entryY=0.6;entryDx=0;entryDy=0;entryPerimeter=0;" edge="1" parent="WIyWlLk6GJQsqaUBKTNV-1" target="LSPWSXQBOcd98Ju-pocV-10">
          <mxGeometry width="50" height="50" relative="1" as="geometry">
            <mxPoint x="-500" y="110" as="sourcePoint" />
            <mxPoint x="-430" y="110" as="targetPoint" />
          </mxGeometry>
        </mxCell>
        <mxCell id="LSPWSXQBOcd98Ju-pocV-12" value="GamesLibrary" style="swimlane;fontStyle=0;childLayout=stackLayout;horizontal=1;startSize=30;horizontalStack=0;resizeParent=1;resizeParentMax=0;resizeLast=0;collapsible=1;marginBottom=0;whiteSpace=wrap;html=1;" vertex="1" parent="WIyWlLk6GJQsqaUBKTNV-1">
          <mxGeometry x="-336" y="-420" width="170" height="330" as="geometry" />
        </mxCell>
        <mxCell id="LSPWSXQBOcd98Ju-pocV-13" value="- _connectionString: readonly string" style="text;html=1;strokeColor=none;fillColor=none;align=left;verticalAlign=middle;whiteSpace=wrap;rounded=0;" vertex="1" parent="LSPWSXQBOcd98Ju-pocV-12">
          <mxGeometry y="30" width="170" height="40" as="geometry" />
        </mxCell>
        <mxCell id="LSPWSXQBOcd98Ju-pocV-14" value="+ GamesLibrary(string con)" style="text;html=1;strokeColor=none;fillColor=none;align=left;verticalAlign=middle;whiteSpace=wrap;rounded=0;" vertex="1" parent="LSPWSXQBOcd98Ju-pocV-12">
          <mxGeometry y="70" width="170" height="30" as="geometry" />
        </mxCell>
        <mxCell id="LSPWSXQBOcd98Ju-pocV-15" value="- GetAll(string console): List&amp;lt;GameDTO&amp;gt;" style="text;strokeColor=none;fillColor=none;align=left;verticalAlign=middle;spacingLeft=4;spacingRight=4;overflow=hidden;points=[[0,0.5],[1,0.5]];portConstraint=eastwest;rotatable=0;whiteSpace=wrap;html=1;" vertex="1" parent="LSPWSXQBOcd98Ju-pocV-12">
          <mxGeometry y="100" width="170" height="50" as="geometry" />
        </mxCell>
        <mxCell id="LSPWSXQBOcd98Ju-pocV-16" value="+ GetGame(string name, string console): GameDTO?" style="text;html=1;strokeColor=none;fillColor=none;align=left;verticalAlign=middle;whiteSpace=wrap;rounded=0;" vertex="1" parent="LSPWSXQBOcd98Ju-pocV-12">
          <mxGeometry y="150" width="170" height="50" as="geometry" />
        </mxCell>
        <mxCell id="LSPWSXQBOcd98Ju-pocV-17" value="-CreateGameDTO(reader: SqlDataReader&lt;br&gt;): GameDTO" style="text;html=1;strokeColor=none;fillColor=none;align=left;verticalAlign=middle;whiteSpace=wrap;rounded=0;" vertex="1" parent="LSPWSXQBOcd98Ju-pocV-12">
          <mxGeometry y="200" width="170" height="60" as="geometry" />
        </mxCell>
        <mxCell id="LSPWSXQBOcd98Ju-pocV-18" value="+ AddGame(Game g): void" style="text;html=1;strokeColor=none;fillColor=none;align=left;verticalAlign=middle;whiteSpace=wrap;rounded=0;" vertex="1" parent="LSPWSXQBOcd98Ju-pocV-12">
          <mxGeometry y="260" width="170" height="40" as="geometry" />
        </mxCell>
        <mxCell id="LSPWSXQBOcd98Ju-pocV-19" value="+ RemoveGame(Game g): void" style="text;html=1;strokeColor=none;fillColor=none;align=left;verticalAlign=middle;whiteSpace=wrap;rounded=0;" vertex="1" parent="LSPWSXQBOcd98Ju-pocV-12">
          <mxGeometry y="300" width="170" height="30" as="geometry" />
        </mxCell>
        <mxCell id="LSPWSXQBOcd98Ju-pocV-20" value="" style="endArrow=none;html=1;rounded=0;exitX=-0.002;exitY=-0.03;exitDx=0;exitDy=0;exitPerimeter=0;entryX=1.003;entryY=0.003;entryDx=0;entryDy=0;entryPerimeter=0;" edge="1" parent="LSPWSXQBOcd98Ju-pocV-12" source="LSPWSXQBOcd98Ju-pocV-15" target="LSPWSXQBOcd98Ju-pocV-15">
          <mxGeometry width="50" height="50" relative="1" as="geometry">
            <mxPoint x="-54" y="401" as="sourcePoint" />
            <mxPoint x="-4" y="351" as="targetPoint" />
          </mxGeometry>
        </mxCell>
        <mxCell id="LSPWSXQBOcd98Ju-pocV-21" value="" style="endArrow=classic;html=1;rounded=0;exitX=0.5;exitY=0;exitDx=0;exitDy=0;entryX=0.5;entryY=1;entryDx=0;entryDy=0;" edge="1" parent="WIyWlLk6GJQsqaUBKTNV-1" source="LSPWSXQBOcd98Ju-pocV-0" target="LSPWSXQBOcd98Ju-pocV-19">
          <mxGeometry width="50" height="50" relative="1" as="geometry">
            <mxPoint x="-190" y="40" as="sourcePoint" />
            <mxPoint x="-140" y="-10" as="targetPoint" />
          </mxGeometry>
        </mxCell>
        <mxCell id="LSPWSXQBOcd98Ju-pocV-22" value="&amp;lt;&amp;lt;interface&amp;gt;&amp;gt;&lt;br&gt;IGameRepository" style="swimlane;fontStyle=0;childLayout=stackLayout;horizontal=1;startSize=30;horizontalStack=0;resizeParent=1;resizeParentMax=0;resizeLast=0;collapsible=1;marginBottom=0;whiteSpace=wrap;html=1;" vertex="1" parent="WIyWlLk6GJQsqaUBKTNV-1">
          <mxGeometry x="-680" y="-299" width="170" height="50" as="geometry" />
        </mxCell>
        <mxCell id="LSPWSXQBOcd98Ju-pocV-23" value="" style="endArrow=none;dashed=1;html=1;dashPattern=1 3;strokeWidth=2;rounded=0;" edge="1" parent="WIyWlLk6GJQsqaUBKTNV-1">
          <mxGeometry width="50" height="50" relative="1" as="geometry">
            <mxPoint x="-510" y="-274.24" as="sourcePoint" />
            <mxPoint x="-340" y="-274" as="targetPoint" />
          </mxGeometry>
        </mxCell>
        <mxCell id="LSPWSXQBOcd98Ju-pocV-24" value="" style="endArrow=classic;html=1;rounded=0;entryX=1;entryY=0.5;entryDx=0;entryDy=0;" edge="1" parent="WIyWlLk6GJQsqaUBKTNV-1" target="LSPWSXQBOcd98Ju-pocV-22">
          <mxGeometry width="50" height="50" relative="1" as="geometry">
            <mxPoint x="-500" y="-274.24" as="sourcePoint" />
            <mxPoint x="-509" y="-274.24" as="targetPoint" />
          </mxGeometry>
        </mxCell>
        <mxCell id="LSPWSXQBOcd98Ju-pocV-25" value="" style="endArrow=classic;html=1;rounded=0;entryX=0.5;entryY=0;entryDx=0;entryDy=0;exitX=0.5;exitY=1;exitDx=0;exitDy=0;" edge="1" parent="WIyWlLk6GJQsqaUBKTNV-1" source="LSPWSXQBOcd98Ju-pocV-35" target="LSPWSXQBOcd98Ju-pocV-12">
          <mxGeometry width="50" height="50" relative="1" as="geometry">
            <mxPoint x="-251" y="-520" as="sourcePoint" />
            <mxPoint x="-360" y="-440" as="targetPoint" />
          </mxGeometry>
        </mxCell>
        <mxCell id="LSPWSXQBOcd98Ju-pocV-26" value="&amp;lt;&amp;lt;struct&amp;gt;&amp;gt;&lt;br&gt;GameDTO" style="swimlane;fontStyle=0;childLayout=stackLayout;horizontal=1;startSize=30;horizontalStack=0;resizeParent=1;resizeParentMax=0;resizeLast=0;collapsible=1;marginBottom=0;whiteSpace=wrap;html=1;" vertex="1" parent="WIyWlLk6GJQsqaUBKTNV-1">
          <mxGeometry x="-336" y="-820" width="170" height="300" as="geometry" />
        </mxCell>
        <mxCell id="LSPWSXQBOcd98Ju-pocV-27" value="+ ID: int" style="text;html=1;strokeColor=none;fillColor=none;align=left;verticalAlign=middle;whiteSpace=wrap;rounded=0;" vertex="1" parent="LSPWSXQBOcd98Ju-pocV-26">
          <mxGeometry y="30" width="170" height="30" as="geometry" />
        </mxCell>
        <mxCell id="LSPWSXQBOcd98Ju-pocV-28" value="+ Name: string" style="text;html=1;strokeColor=none;fillColor=none;align=left;verticalAlign=middle;whiteSpace=wrap;rounded=0;" vertex="1" parent="LSPWSXQBOcd98Ju-pocV-26">
          <mxGeometry y="60" width="170" height="30" as="geometry" />
        </mxCell>
        <mxCell id="LSPWSXQBOcd98Ju-pocV-29" value="+ Developer: string" style="text;html=1;strokeColor=none;fillColor=none;align=left;verticalAlign=middle;whiteSpace=wrap;rounded=0;" vertex="1" parent="LSPWSXQBOcd98Ju-pocV-26">
          <mxGeometry y="90" width="170" height="30" as="geometry" />
        </mxCell>
        <mxCell id="LSPWSXQBOcd98Ju-pocV-30" value="+ Release_Date: string" style="text;html=1;strokeColor=none;fillColor=none;align=left;verticalAlign=middle;whiteSpace=wrap;rounded=0;" vertex="1" parent="LSPWSXQBOcd98Ju-pocV-26">
          <mxGeometry y="120" width="170" height="30" as="geometry" />
        </mxCell>
        <mxCell id="LSPWSXQBOcd98Ju-pocV-31" value="+ Genre: string" style="text;html=1;strokeColor=none;fillColor=none;align=left;verticalAlign=middle;whiteSpace=wrap;rounded=0;" vertex="1" parent="LSPWSXQBOcd98Ju-pocV-26">
          <mxGeometry y="150" width="170" height="30" as="geometry" />
        </mxCell>
        <mxCell id="LSPWSXQBOcd98Ju-pocV-32" value="+ Rating: string" style="text;html=1;strokeColor=none;fillColor=none;align=left;verticalAlign=middle;whiteSpace=wrap;rounded=0;" vertex="1" parent="LSPWSXQBOcd98Ju-pocV-26">
          <mxGeometry y="180" width="170" height="30" as="geometry" />
        </mxCell>
        <mxCell id="LSPWSXQBOcd98Ju-pocV-33" value="+ Description: string" style="text;html=1;strokeColor=none;fillColor=none;align=left;verticalAlign=middle;whiteSpace=wrap;rounded=0;" vertex="1" parent="LSPWSXQBOcd98Ju-pocV-26">
          <mxGeometry y="210" width="170" height="30" as="geometry" />
        </mxCell>
        <mxCell id="LSPWSXQBOcd98Ju-pocV-34" value="+ URL_Game: string" style="text;html=1;strokeColor=none;fillColor=none;align=left;verticalAlign=middle;whiteSpace=wrap;rounded=0;" vertex="1" parent="LSPWSXQBOcd98Ju-pocV-26">
          <mxGeometry y="240" width="170" height="30" as="geometry" />
        </mxCell>
        <mxCell id="LSPWSXQBOcd98Ju-pocV-35" value="+ URL_Page: string" style="text;html=1;strokeColor=none;fillColor=none;align=left;verticalAlign=middle;whiteSpace=wrap;rounded=0;" vertex="1" parent="LSPWSXQBOcd98Ju-pocV-26">
          <mxGeometry y="270" width="170" height="30" as="geometry" />
        </mxCell>
        <mxCell id="LSPWSXQBOcd98Ju-pocV-39" value="ConsoleService" style="swimlane;fontStyle=0;childLayout=stackLayout;horizontal=1;startSize=30;horizontalStack=0;resizeParent=1;resizeParentMax=0;resizeLast=0;collapsible=1;marginBottom=0;whiteSpace=wrap;html=1;" vertex="1" parent="WIyWlLk6GJQsqaUBKTNV-1">
          <mxGeometry x="265" y="-820" width="170" height="350" as="geometry" />
        </mxCell>
        <mxCell id="LSPWSXQBOcd98Ju-pocV-40" value="- _connectionString: const string" style="text;html=1;strokeColor=none;fillColor=none;align=left;verticalAlign=middle;whiteSpace=wrap;rounded=0;" vertex="1" parent="LSPWSXQBOcd98Ju-pocV-39">
          <mxGeometry y="30" width="170" height="40" as="geometry" />
        </mxCell>
        <mxCell id="LSPWSXQBOcd98Ju-pocV-41" value="- _consoleService: readonly IConsoleRepository" style="text;html=1;strokeColor=none;fillColor=none;align=left;verticalAlign=middle;whiteSpace=wrap;rounded=0;" vertex="1" parent="LSPWSXQBOcd98Ju-pocV-39">
          <mxGeometry y="70" width="170" height="40" as="geometry" />
        </mxCell>
        <mxCell id="LSPWSXQBOcd98Ju-pocV-42" value="+ ConsoleService()" style="text;html=1;strokeColor=none;fillColor=none;align=left;verticalAlign=middle;whiteSpace=wrap;rounded=0;" vertex="1" parent="LSPWSXQBOcd98Ju-pocV-39">
          <mxGeometry y="110" width="170" height="30" as="geometry" />
        </mxCell>
        <mxCell id="LSPWSXQBOcd98Ju-pocV-43" value="" style="endArrow=none;html=1;rounded=0;entryX=0.996;entryY=-0.003;entryDx=0;entryDy=0;entryPerimeter=0;exitX=0.001;exitY=-0.004;exitDx=0;exitDy=0;exitPerimeter=0;" edge="1" parent="LSPWSXQBOcd98Ju-pocV-39" source="LSPWSXQBOcd98Ju-pocV-44" target="LSPWSXQBOcd98Ju-pocV-44">
          <mxGeometry width="50" height="50" relative="1" as="geometry">
            <mxPoint x="-4" y="190" as="sourcePoint" />
            <mxPoint x="46" y="140" as="targetPoint" />
          </mxGeometry>
        </mxCell>
        <mxCell id="LSPWSXQBOcd98Ju-pocV-44" value="+ GetAll(): List&amp;lt;Console&amp;gt;" style="text;strokeColor=none;fillColor=none;align=left;verticalAlign=middle;spacingLeft=4;spacingRight=4;overflow=hidden;points=[[0,0.5],[1,0.5]];portConstraint=eastwest;rotatable=0;whiteSpace=wrap;html=1;" vertex="1" parent="LSPWSXQBOcd98Ju-pocV-39">
          <mxGeometry y="140" width="170" height="40" as="geometry" />
        </mxCell>
        <mxCell id="LSPWSXQBOcd98Ju-pocV-45" value="+ GetConsole(string model): Console" style="text;html=1;strokeColor=none;fillColor=none;align=left;verticalAlign=middle;whiteSpace=wrap;rounded=0;" vertex="1" parent="LSPWSXQBOcd98Ju-pocV-39">
          <mxGeometry y="180" width="170" height="40" as="geometry" />
        </mxCell>
        <mxCell id="LSPWSXQBOcd98Ju-pocV-46" value="+ AddConsole(type: string, model: string, manufacturer: string, releaseDate: string, urlConsole: string,&amp;nbsp; controllerType: string, chatPlatform: string): void" style="text;html=1;strokeColor=none;fillColor=none;align=left;verticalAlign=middle;whiteSpace=wrap;rounded=0;" vertex="1" parent="LSPWSXQBOcd98Ju-pocV-39">
          <mxGeometry y="220" width="170" height="100" as="geometry" />
        </mxCell>
        <mxCell id="LSPWSXQBOcd98Ju-pocV-47" value="+ RemoveConsole(string console): void" style="text;html=1;strokeColor=none;fillColor=none;align=left;verticalAlign=middle;whiteSpace=wrap;rounded=0;" vertex="1" parent="LSPWSXQBOcd98Ju-pocV-39">
          <mxGeometry y="320" width="170" height="30" as="geometry" />
        </mxCell>
        <mxCell id="LSPWSXQBOcd98Ju-pocV-51" value="ConsoleLibrary" style="swimlane;fontStyle=0;childLayout=stackLayout;horizontal=1;startSize=30;horizontalStack=0;resizeParent=1;resizeParentMax=0;resizeLast=0;collapsible=1;marginBottom=0;whiteSpace=wrap;html=1;" vertex="1" parent="WIyWlLk6GJQsqaUBKTNV-1">
          <mxGeometry x="250" y="-330" width="200" height="420" as="geometry" />
        </mxCell>
        <mxCell id="LSPWSXQBOcd98Ju-pocV-52" value="- connectionString: readonly string" style="text;html=1;strokeColor=none;fillColor=none;align=left;verticalAlign=middle;whiteSpace=wrap;rounded=0;" vertex="1" parent="LSPWSXQBOcd98Ju-pocV-51">
          <mxGeometry y="30" width="200" height="40" as="geometry" />
        </mxCell>
        <mxCell id="LSPWSXQBOcd98Ju-pocV-53" value="" style="endArrow=none;html=1;rounded=0;entryX=0.996;entryY=-0.003;entryDx=0;entryDy=0;entryPerimeter=0;exitX=0.001;exitY=-0.004;exitDx=0;exitDy=0;exitPerimeter=0;" edge="1" parent="LSPWSXQBOcd98Ju-pocV-51" source="LSPWSXQBOcd98Ju-pocV-55" target="LSPWSXQBOcd98Ju-pocV-55">
          <mxGeometry width="50" height="50" relative="1" as="geometry">
            <mxPoint x="-4" y="190" as="sourcePoint" />
            <mxPoint x="46" y="140" as="targetPoint" />
          </mxGeometry>
        </mxCell>
        <mxCell id="LSPWSXQBOcd98Ju-pocV-54" value="+ ConsoleLibrary(connectionString: string)" style="text;html=1;strokeColor=none;fillColor=none;align=left;verticalAlign=middle;whiteSpace=wrap;rounded=0;" vertex="1" parent="LSPWSXQBOcd98Ju-pocV-51">
          <mxGeometry y="70" width="200" height="70" as="geometry" />
        </mxCell>
        <mxCell id="LSPWSXQBOcd98Ju-pocV-55" value="+ GetAll(): List&amp;lt;ConsoleDTO&amp;gt;" style="text;strokeColor=none;fillColor=none;align=left;verticalAlign=middle;spacingLeft=4;spacingRight=4;overflow=hidden;points=[[0,0.5],[1,0.5]];portConstraint=eastwest;rotatable=0;whiteSpace=wrap;html=1;" vertex="1" parent="LSPWSXQBOcd98Ju-pocV-51">
          <mxGeometry y="140" width="200" height="40" as="geometry" />
        </mxCell>
        <mxCell id="LSPWSXQBOcd98Ju-pocV-56" value="+ GetConsole(string model): ConsoleDTO?" style="text;html=1;strokeColor=none;fillColor=none;align=left;verticalAlign=middle;whiteSpace=wrap;rounded=0;" vertex="1" parent="LSPWSXQBOcd98Ju-pocV-51">
          <mxGeometry y="180" width="200" height="50" as="geometry" />
        </mxCell>
        <mxCell id="LSPWSXQBOcd98Ju-pocV-57" value="-CreateConsoleDTO(reader: SqlDataReader&lt;br&gt;): ConsoleDTO" style="text;html=1;strokeColor=none;fillColor=none;align=left;verticalAlign=middle;whiteSpace=wrap;rounded=0;" vertex="1" parent="LSPWSXQBOcd98Ju-pocV-51">
          <mxGeometry y="230" width="200" height="60" as="geometry" />
        </mxCell>
        <mxCell id="LSPWSXQBOcd98Ju-pocV-58" value="+ AddConsole(type: string, model: string, manufacturer: string, releaseDate: string, urlConsole: string,&amp;nbsp; controllerType: string, chatPlatform: string): void" style="text;html=1;strokeColor=none;fillColor=none;align=left;verticalAlign=middle;whiteSpace=wrap;rounded=0;" vertex="1" parent="LSPWSXQBOcd98Ju-pocV-51">
          <mxGeometry y="290" width="200" height="100" as="geometry" />
        </mxCell>
        <mxCell id="LSPWSXQBOcd98Ju-pocV-59" value="+ RemoveConsole(string console): void" style="text;html=1;strokeColor=none;fillColor=none;align=left;verticalAlign=middle;whiteSpace=wrap;rounded=0;" vertex="1" parent="LSPWSXQBOcd98Ju-pocV-51">
          <mxGeometry y="390" width="200" height="30" as="geometry" />
        </mxCell>
        <mxCell id="LSPWSXQBOcd98Ju-pocV-60" value="" style="endArrow=classic;html=1;rounded=0;entryX=0.494;entryY=0;entryDx=0;entryDy=0;entryPerimeter=0;" edge="1" parent="WIyWlLk6GJQsqaUBKTNV-1" target="LSPWSXQBOcd98Ju-pocV-51">
          <mxGeometry width="50" height="50" relative="1" as="geometry">
            <mxPoint x="349" y="-470" as="sourcePoint" />
            <mxPoint x="349" y="-362" as="targetPoint" />
          </mxGeometry>
        </mxCell>
        <mxCell id="LSPWSXQBOcd98Ju-pocV-61" value="&amp;lt;&amp;lt;struct&amp;gt;&amp;gt;&lt;br&gt;ConsoleDTO" style="swimlane;fontStyle=0;childLayout=stackLayout;horizontal=1;startSize=30;horizontalStack=0;resizeParent=1;resizeParentMax=0;resizeLast=0;collapsible=1;marginBottom=0;whiteSpace=wrap;html=1;" vertex="1" parent="WIyWlLk6GJQsqaUBKTNV-1">
          <mxGeometry x="265" y="200" width="170" height="240" as="geometry" />
        </mxCell>
        <mxCell id="LSPWSXQBOcd98Ju-pocV-62" value="+ ID: int" style="text;html=1;strokeColor=none;fillColor=none;align=left;verticalAlign=middle;whiteSpace=wrap;rounded=0;" vertex="1" parent="LSPWSXQBOcd98Ju-pocV-61">
          <mxGeometry y="30" width="170" height="30" as="geometry" />
        </mxCell>
        <mxCell id="LSPWSXQBOcd98Ju-pocV-63" value="+ Model: string" style="text;html=1;strokeColor=none;fillColor=none;align=left;verticalAlign=middle;whiteSpace=wrap;rounded=0;" vertex="1" parent="LSPWSXQBOcd98Ju-pocV-61">
          <mxGeometry y="60" width="170" height="30" as="geometry" />
        </mxCell>
        <mxCell id="LSPWSXQBOcd98Ju-pocV-64" value="+ Manufacturer: string" style="text;html=1;strokeColor=none;fillColor=none;align=left;verticalAlign=middle;whiteSpace=wrap;rounded=0;" vertex="1" parent="LSPWSXQBOcd98Ju-pocV-61">
          <mxGeometry y="90" width="170" height="30" as="geometry" />
        </mxCell>
        <mxCell id="LSPWSXQBOcd98Ju-pocV-65" value="+ Release_Date: string" style="text;html=1;strokeColor=none;fillColor=none;align=left;verticalAlign=middle;whiteSpace=wrap;rounded=0;" vertex="1" parent="LSPWSXQBOcd98Ju-pocV-61">
          <mxGeometry y="120" width="170" height="30" as="geometry" />
        </mxCell>
        <mxCell id="LSPWSXQBOcd98Ju-pocV-66" value="+ URL_Console: string" style="text;html=1;strokeColor=none;fillColor=none;align=left;verticalAlign=middle;whiteSpace=wrap;rounded=0;" vertex="1" parent="LSPWSXQBOcd98Ju-pocV-61">
          <mxGeometry y="150" width="170" height="30" as="geometry" />
        </mxCell>
        <mxCell id="LSPWSXQBOcd98Ju-pocV-67" value="+ ControllerType: string" style="text;html=1;strokeColor=none;fillColor=none;align=left;verticalAlign=middle;whiteSpace=wrap;rounded=0;" vertex="1" parent="LSPWSXQBOcd98Ju-pocV-61">
          <mxGeometry y="180" width="170" height="30" as="geometry" />
        </mxCell>
        <mxCell id="LSPWSXQBOcd98Ju-pocV-68" value="+ Chat_Platform: string" style="text;html=1;strokeColor=none;fillColor=none;align=left;verticalAlign=middle;whiteSpace=wrap;rounded=0;" vertex="1" parent="LSPWSXQBOcd98Ju-pocV-61">
          <mxGeometry y="210" width="170" height="30" as="geometry" />
        </mxCell>
        <mxCell id="LSPWSXQBOcd98Ju-pocV-69" value="" style="endArrow=classic;html=1;rounded=0;exitX=0.5;exitY=0;exitDx=0;exitDy=0;entryX=0.5;entryY=1;entryDx=0;entryDy=0;" edge="1" parent="WIyWlLk6GJQsqaUBKTNV-1" source="LSPWSXQBOcd98Ju-pocV-61" target="LSPWSXQBOcd98Ju-pocV-59">
          <mxGeometry width="50" height="50" relative="1" as="geometry">
            <mxPoint x="245" y="310" as="sourcePoint" />
            <mxPoint x="225" y="120" as="targetPoint" />
          </mxGeometry>
        </mxCell>
        <mxCell id="LSPWSXQBOcd98Ju-pocV-71" value="&amp;lt;&amp;lt;interface&amp;gt;&amp;gt;&lt;br&gt;IConsoleService" style="swimlane;fontStyle=0;childLayout=stackLayout;horizontal=1;startSize=30;horizontalStack=0;resizeParent=1;resizeParentMax=0;resizeLast=0;collapsible=1;marginBottom=0;whiteSpace=wrap;html=1;" vertex="1" parent="WIyWlLk6GJQsqaUBKTNV-1">
          <mxGeometry x="605" y="-710" width="170" height="50" as="geometry" />
        </mxCell>
        <mxCell id="LSPWSXQBOcd98Ju-pocV-73" value="ConsoleService" style="swimlane;fontStyle=0;childLayout=stackLayout;horizontal=1;startSize=30;horizontalStack=0;resizeParent=1;resizeParentMax=0;resizeLast=0;collapsible=1;marginBottom=0;whiteSpace=wrap;html=1;" vertex="1" parent="WIyWlLk6GJQsqaUBKTNV-1">
          <mxGeometry x="265" y="-820" width="170" height="350" as="geometry" />
        </mxCell>
        <mxCell id="LSPWSXQBOcd98Ju-pocV-74" value="- _connectionString: const string" style="text;html=1;strokeColor=none;fillColor=none;align=left;verticalAlign=middle;whiteSpace=wrap;rounded=0;" vertex="1" parent="LSPWSXQBOcd98Ju-pocV-73">
          <mxGeometry y="30" width="170" height="40" as="geometry" />
        </mxCell>
        <mxCell id="LSPWSXQBOcd98Ju-pocV-75" value="- _consoleService: readonly IConsoleRepository" style="text;html=1;strokeColor=none;fillColor=none;align=left;verticalAlign=middle;whiteSpace=wrap;rounded=0;" vertex="1" parent="LSPWSXQBOcd98Ju-pocV-73">
          <mxGeometry y="70" width="170" height="40" as="geometry" />
        </mxCell>
        <mxCell id="LSPWSXQBOcd98Ju-pocV-76" value="+ ConsoleService()" style="text;html=1;strokeColor=none;fillColor=none;align=left;verticalAlign=middle;whiteSpace=wrap;rounded=0;" vertex="1" parent="LSPWSXQBOcd98Ju-pocV-73">
          <mxGeometry y="110" width="170" height="30" as="geometry" />
        </mxCell>
        <mxCell id="LSPWSXQBOcd98Ju-pocV-77" value="" style="endArrow=none;html=1;rounded=0;entryX=0.996;entryY=-0.003;entryDx=0;entryDy=0;entryPerimeter=0;exitX=0.001;exitY=-0.004;exitDx=0;exitDy=0;exitPerimeter=0;" edge="1" parent="LSPWSXQBOcd98Ju-pocV-73" source="LSPWSXQBOcd98Ju-pocV-78" target="LSPWSXQBOcd98Ju-pocV-78">
          <mxGeometry width="50" height="50" relative="1" as="geometry">
            <mxPoint x="-4" y="190" as="sourcePoint" />
            <mxPoint x="46" y="140" as="targetPoint" />
          </mxGeometry>
        </mxCell>
        <mxCell id="LSPWSXQBOcd98Ju-pocV-78" value="+ GetAll(): List&amp;lt;Console&amp;gt;" style="text;strokeColor=none;fillColor=none;align=left;verticalAlign=middle;spacingLeft=4;spacingRight=4;overflow=hidden;points=[[0,0.5],[1,0.5]];portConstraint=eastwest;rotatable=0;whiteSpace=wrap;html=1;" vertex="1" parent="LSPWSXQBOcd98Ju-pocV-73">
          <mxGeometry y="140" width="170" height="40" as="geometry" />
        </mxCell>
        <mxCell id="LSPWSXQBOcd98Ju-pocV-79" value="+ GetConsole(string model): Console" style="text;html=1;strokeColor=none;fillColor=none;align=left;verticalAlign=middle;whiteSpace=wrap;rounded=0;" vertex="1" parent="LSPWSXQBOcd98Ju-pocV-73">
          <mxGeometry y="180" width="170" height="40" as="geometry" />
        </mxCell>
        <mxCell id="LSPWSXQBOcd98Ju-pocV-80" value="+ AddConsole(type: string, model: string, manufacturer: string, releaseDate: string, urlConsole: string,&amp;nbsp; controllerType: string, chatPlatform: string): void" style="text;html=1;strokeColor=none;fillColor=none;align=left;verticalAlign=middle;whiteSpace=wrap;rounded=0;" vertex="1" parent="LSPWSXQBOcd98Ju-pocV-73">
          <mxGeometry y="220" width="170" height="100" as="geometry" />
        </mxCell>
        <mxCell id="LSPWSXQBOcd98Ju-pocV-81" value="+ RemoveConsole(string console): void" style="text;html=1;strokeColor=none;fillColor=none;align=left;verticalAlign=middle;whiteSpace=wrap;rounded=0;" vertex="1" parent="LSPWSXQBOcd98Ju-pocV-73">
          <mxGeometry y="320" width="170" height="30" as="geometry" />
        </mxCell>
        <mxCell id="LSPWSXQBOcd98Ju-pocV-82" value="" style="endArrow=none;dashed=1;html=1;dashPattern=1 3;strokeWidth=2;rounded=0;entryX=0;entryY=0.003;entryDx=0;entryDy=0;entryPerimeter=0;" edge="1" parent="WIyWlLk6GJQsqaUBKTNV-1">
          <mxGeometry width="50" height="50" relative="1" as="geometry">
            <mxPoint x="455" y="-190" as="sourcePoint" />
            <mxPoint x="610" y="-189.8800000000001" as="targetPoint" />
          </mxGeometry>
        </mxCell>
        <mxCell id="LSPWSXQBOcd98Ju-pocV-83" value="&amp;lt;&amp;lt;interface&amp;gt;&amp;gt;&lt;br&gt;IConsoleLibrary" style="swimlane;fontStyle=0;childLayout=stackLayout;horizontal=1;startSize=30;horizontalStack=0;resizeParent=1;resizeParentMax=0;resizeLast=0;collapsible=1;marginBottom=0;whiteSpace=wrap;html=1;" vertex="1" parent="WIyWlLk6GJQsqaUBKTNV-1">
          <mxGeometry x="605" y="-220" width="170" height="50" as="geometry" />
        </mxCell>
        <mxCell id="LSPWSXQBOcd98Ju-pocV-85" value="ConsoleLibrary" style="swimlane;fontStyle=0;childLayout=stackLayout;horizontal=1;startSize=30;horizontalStack=0;resizeParent=1;resizeParentMax=0;resizeLast=0;collapsible=1;marginBottom=0;whiteSpace=wrap;html=1;" vertex="1" parent="WIyWlLk6GJQsqaUBKTNV-1">
          <mxGeometry x="250" y="-330" width="200" height="420" as="geometry" />
        </mxCell>
        <mxCell id="LSPWSXQBOcd98Ju-pocV-86" value="- connectionString: readonly string" style="text;html=1;strokeColor=none;fillColor=none;align=left;verticalAlign=middle;whiteSpace=wrap;rounded=0;" vertex="1" parent="LSPWSXQBOcd98Ju-pocV-85">
          <mxGeometry y="30" width="200" height="40" as="geometry" />
        </mxCell>
        <mxCell id="LSPWSXQBOcd98Ju-pocV-87" value="" style="endArrow=none;html=1;rounded=0;entryX=0.996;entryY=-0.003;entryDx=0;entryDy=0;entryPerimeter=0;exitX=0.001;exitY=-0.004;exitDx=0;exitDy=0;exitPerimeter=0;" edge="1" parent="LSPWSXQBOcd98Ju-pocV-85" source="LSPWSXQBOcd98Ju-pocV-89" target="LSPWSXQBOcd98Ju-pocV-89">
          <mxGeometry width="50" height="50" relative="1" as="geometry">
            <mxPoint x="-4" y="190" as="sourcePoint" />
            <mxPoint x="46" y="140" as="targetPoint" />
          </mxGeometry>
        </mxCell>
        <mxCell id="LSPWSXQBOcd98Ju-pocV-88" value="+ ConsoleLibrary(connectionString: string)" style="text;html=1;strokeColor=none;fillColor=none;align=left;verticalAlign=middle;whiteSpace=wrap;rounded=0;" vertex="1" parent="LSPWSXQBOcd98Ju-pocV-85">
          <mxGeometry y="70" width="200" height="70" as="geometry" />
        </mxCell>
        <mxCell id="LSPWSXQBOcd98Ju-pocV-89" value="+ GetAll(): List&amp;lt;ConsoleDTO&amp;gt;" style="text;strokeColor=none;fillColor=none;align=left;verticalAlign=middle;spacingLeft=4;spacingRight=4;overflow=hidden;points=[[0,0.5],[1,0.5]];portConstraint=eastwest;rotatable=0;whiteSpace=wrap;html=1;" vertex="1" parent="LSPWSXQBOcd98Ju-pocV-85">
          <mxGeometry y="140" width="200" height="40" as="geometry" />
        </mxCell>
        <mxCell id="LSPWSXQBOcd98Ju-pocV-90" value="+ GetConsole(string model): ConsoleDTO?" style="text;html=1;strokeColor=none;fillColor=none;align=left;verticalAlign=middle;whiteSpace=wrap;rounded=0;" vertex="1" parent="LSPWSXQBOcd98Ju-pocV-85">
          <mxGeometry y="180" width="200" height="50" as="geometry" />
        </mxCell>
        <mxCell id="LSPWSXQBOcd98Ju-pocV-91" value="-CreateConsoleDTO(reader: SqlDataReader&lt;br&gt;): ConsoleDTO" style="text;html=1;strokeColor=none;fillColor=none;align=left;verticalAlign=middle;whiteSpace=wrap;rounded=0;" vertex="1" parent="LSPWSXQBOcd98Ju-pocV-85">
          <mxGeometry y="230" width="200" height="60" as="geometry" />
        </mxCell>
        <mxCell id="LSPWSXQBOcd98Ju-pocV-92" value="+ AddConsole(type: string, model: string, manufacturer: string, releaseDate: string, urlConsole: string,&amp;nbsp; controllerType: string, chatPlatform: string): void" style="text;html=1;strokeColor=none;fillColor=none;align=left;verticalAlign=middle;whiteSpace=wrap;rounded=0;" vertex="1" parent="LSPWSXQBOcd98Ju-pocV-85">
          <mxGeometry y="290" width="200" height="100" as="geometry" />
        </mxCell>
        <mxCell id="LSPWSXQBOcd98Ju-pocV-93" value="+ RemoveConsole(string console): void" style="text;html=1;strokeColor=none;fillColor=none;align=left;verticalAlign=middle;whiteSpace=wrap;rounded=0;" vertex="1" parent="LSPWSXQBOcd98Ju-pocV-85">
          <mxGeometry y="390" width="200" height="30" as="geometry" />
        </mxCell>
        <mxCell id="LSPWSXQBOcd98Ju-pocV-94" value="" style="endArrow=classic;html=1;rounded=0;entryX=0.494;entryY=0;entryDx=0;entryDy=0;entryPerimeter=0;" edge="1" parent="WIyWlLk6GJQsqaUBKTNV-1" target="LSPWSXQBOcd98Ju-pocV-85">
          <mxGeometry width="50" height="50" relative="1" as="geometry">
            <mxPoint x="349" y="-470" as="sourcePoint" />
            <mxPoint x="349" y="-362" as="targetPoint" />
          </mxGeometry>
        </mxCell>
        <mxCell id="LSPWSXQBOcd98Ju-pocV-95" value="&amp;lt;&amp;lt;struct&amp;gt;&amp;gt;&lt;br&gt;ConsoleDTO" style="swimlane;fontStyle=0;childLayout=stackLayout;horizontal=1;startSize=30;horizontalStack=0;resizeParent=1;resizeParentMax=0;resizeLast=0;collapsible=1;marginBottom=0;whiteSpace=wrap;html=1;" vertex="1" parent="WIyWlLk6GJQsqaUBKTNV-1">
          <mxGeometry x="265" y="200" width="170" height="240" as="geometry" />
        </mxCell>
        <mxCell id="LSPWSXQBOcd98Ju-pocV-96" value="+ ID: int" style="text;html=1;strokeColor=none;fillColor=none;align=left;verticalAlign=middle;whiteSpace=wrap;rounded=0;" vertex="1" parent="LSPWSXQBOcd98Ju-pocV-95">
          <mxGeometry y="30" width="170" height="30" as="geometry" />
        </mxCell>
        <mxCell id="LSPWSXQBOcd98Ju-pocV-97" value="+ Model: string" style="text;html=1;strokeColor=none;fillColor=none;align=left;verticalAlign=middle;whiteSpace=wrap;rounded=0;" vertex="1" parent="LSPWSXQBOcd98Ju-pocV-95">
          <mxGeometry y="60" width="170" height="30" as="geometry" />
        </mxCell>
        <mxCell id="LSPWSXQBOcd98Ju-pocV-98" value="+ Manufacturer: string" style="text;html=1;strokeColor=none;fillColor=none;align=left;verticalAlign=middle;whiteSpace=wrap;rounded=0;" vertex="1" parent="LSPWSXQBOcd98Ju-pocV-95">
          <mxGeometry y="90" width="170" height="30" as="geometry" />
        </mxCell>
        <mxCell id="LSPWSXQBOcd98Ju-pocV-99" value="+ Release_Date: string" style="text;html=1;strokeColor=none;fillColor=none;align=left;verticalAlign=middle;whiteSpace=wrap;rounded=0;" vertex="1" parent="LSPWSXQBOcd98Ju-pocV-95">
          <mxGeometry y="120" width="170" height="30" as="geometry" />
        </mxCell>
        <mxCell id="LSPWSXQBOcd98Ju-pocV-100" value="+ URL_Console: string" style="text;html=1;strokeColor=none;fillColor=none;align=left;verticalAlign=middle;whiteSpace=wrap;rounded=0;" vertex="1" parent="LSPWSXQBOcd98Ju-pocV-95">
          <mxGeometry y="150" width="170" height="30" as="geometry" />
        </mxCell>
        <mxCell id="LSPWSXQBOcd98Ju-pocV-101" value="+ ControllerType: string" style="text;html=1;strokeColor=none;fillColor=none;align=left;verticalAlign=middle;whiteSpace=wrap;rounded=0;" vertex="1" parent="LSPWSXQBOcd98Ju-pocV-95">
          <mxGeometry y="180" width="170" height="30" as="geometry" />
        </mxCell>
        <mxCell id="LSPWSXQBOcd98Ju-pocV-102" value="+ Chat_Platform: string" style="text;html=1;strokeColor=none;fillColor=none;align=left;verticalAlign=middle;whiteSpace=wrap;rounded=0;" vertex="1" parent="LSPWSXQBOcd98Ju-pocV-95">
          <mxGeometry y="210" width="170" height="30" as="geometry" />
        </mxCell>
        <mxCell id="LSPWSXQBOcd98Ju-pocV-103" value="" style="endArrow=classic;html=1;rounded=0;exitX=0.5;exitY=0;exitDx=0;exitDy=0;entryX=0.5;entryY=1;entryDx=0;entryDy=0;" edge="1" parent="WIyWlLk6GJQsqaUBKTNV-1" source="LSPWSXQBOcd98Ju-pocV-95" target="LSPWSXQBOcd98Ju-pocV-93">
          <mxGeometry width="50" height="50" relative="1" as="geometry">
            <mxPoint x="245" y="310" as="sourcePoint" />
            <mxPoint x="225" y="120" as="targetPoint" />
          </mxGeometry>
        </mxCell>
        <mxCell id="LSPWSXQBOcd98Ju-pocV-106" value="" style="endArrow=none;dashed=1;html=1;dashPattern=1 3;strokeWidth=2;rounded=0;entryX=0;entryY=0.003;entryDx=0;entryDy=0;entryPerimeter=0;" edge="1" parent="WIyWlLk6GJQsqaUBKTNV-1">
          <mxGeometry width="50" height="50" relative="1" as="geometry">
            <mxPoint x="435" y="-680" as="sourcePoint" />
            <mxPoint x="605" y="-680" as="targetPoint" />
          </mxGeometry>
        </mxCell>
        <mxCell id="LSPWSXQBOcd98Ju-pocV-107" value="" style="endArrow=classic;html=1;rounded=0;entryX=0.001;entryY=0.603;entryDx=0;entryDy=0;entryPerimeter=0;" edge="1" parent="WIyWlLk6GJQsqaUBKTNV-1" target="LSPWSXQBOcd98Ju-pocV-71">
          <mxGeometry width="50" height="50" relative="1" as="geometry">
            <mxPoint x="595" y="-680" as="sourcePoint" />
            <mxPoint x="505" y="-670" as="targetPoint" />
          </mxGeometry>
        </mxCell>
        <mxCell id="LSPWSXQBOcd98Ju-pocV-108" value="" style="endArrow=classic;html=1;rounded=0;entryX=-0.01;entryY=0.588;entryDx=0;entryDy=0;entryPerimeter=0;" edge="1" parent="WIyWlLk6GJQsqaUBKTNV-1">
          <mxGeometry width="50" height="50" relative="1" as="geometry">
            <mxPoint x="597" y="-190" as="sourcePoint" />
            <mxPoint x="605.3000000000002" y="-189.5999999999999" as="targetPoint" />
          </mxGeometry>
        </mxCell>
      </root>
    </mxGraphModel>
  </diagram>
</mxfile>
